<?xml version="1.0" encoding="UTF-8"?><svg id="Layer_1" xmlns="http://www.w3.org/2000/svg" viewBox="0 0 28 28"><path d="M3,8c-.02,4.54,2.78,8.62,7.02,10.25l-1.28,2.78c-.08,0-.15-.02-.23-.02-1.93,0-3.51,1.55-3.51,3.49,0,1.93,1.55,3.51,3.49,3.51,1.75,0,3.23-1.27,3.48-3h7.01l1.13,2.42c.23,.5,.83,.72,1.33,.48,.5-.23,.72-.83,.48-1.33l-1.38-2.97h0s-2.51-5.38-2.51-5.38c4.2-1.67,6.96-5.72,6.99-10.24,0-.55-.45-1-1-1H4c-.55,0-1,.45-1,1Zm5.5,18c-.83,0-1.5-.67-1.5-1.5s.67-1.5,1.5-1.5,1.5,.67,1.5,1.5c0,.83-.67,1.5-1.5,1.5Zm3.15-3c-.24-.5-.6-.94-1.04-1.27l1.36-2.94c.67,.13,1.35,.21,2.03,.21,.69,0,1.38-.07,2.07-.2l1.96,4.2h-6.38Zm4.29-6.21c-4.86,1.06-9.67-2.02-10.73-6.89-.07-.3-.11-.6-.15-.9H22.94c-.44,3.82-3.25,6.94-7,7.79Z"/><path d="M13,5c0,.55,.45,1,1,1s1-.45,1-1V1c0-.55-.45-1-1-1s-1,.45-1,1V5Z"/><path d="M19,5V3c0-.55-.45-1-1-1s-1,.45-1,1v2c0,.55,.45,1,1,1s1-.45,1-1Z"/><path d="M11,5V3c0-.55-.45-1-1-1s-1,.45-1,1v2c0,.55,.45,1,1,1s1-.45,1-1Z"/></svg>