<?xml version="1.0" encoding="UTF-8"?><svg id="Layer_1" xmlns="http://www.w3.org/2000/svg" viewBox="0 0 71.89 71.89"><path d="M7.98,4.1c-1.56,0-2.38,1.41-2.38,2.4V25.2L.11,41.53c-.09,.25-.11,.59-.11,.76v23.07c-.03,1.27,1.13,2.43,2.41,2.43s2.41-1.16,2.38-2.43v-5.56h62.32v5.56c-.03,1.27,1.13,2.43,2.38,2.43s2.43-1.16,2.41-2.43v-23.07c0-.17-.03-.51-.11-.76l-5.49-16.33V6.5c0-.99-.82-2.4-2.38-2.4,0,0-55.93,0-55.93,0Zm2.4,4.8H61.5v5.73c-1.19-.62-2.55-.96-3.99-.96h-15.17c-2.52,0-4.78,1.07-6.4,2.76-1.61-1.69-3.88-2.76-6.4-2.76H14.38c-1.44,0-2.8,.34-3.99,.96v-5.73h0Zm3.99,9.53h15.17c2.26,0,3.99,1.75,3.99,3.98v.82H10.39v-.82c0-2.23,1.73-3.98,3.99-3.98h0Zm27.96,0h15.17c2.26,0,3.99,1.75,3.99,3.98v.82h-23.15v-.82c0-2.23,1.73-3.98,3.99-3.98h0ZM9.71,27.99H62.18l3.99,11.9H5.72l3.99-11.9Zm-4.92,16.7h62.32v10.35H4.78v-10.35Z"/></svg>