<?xml version="1.0" encoding="UTF-8"?><svg id="Layer_1" xmlns="http://www.w3.org/2000/svg" viewBox="0 0 878.09 878.09"><defs><style>.cls-1{fill:#fff;}</style></defs><path class="cls-1" d="M842.8,737.86c-46.7,119.28-156.19,140.18-191.97,140.18-10.51,0-174.14,9.24-409.36-228.46C52.17,458.29,29.04,252.57,27.03,213.49c-1.96-38.07,8.27-133.57,131.59-204.53C173.9,.17,204.19-3.73,212.01,4.61c3.47,3.7,106.98,185.15,109.7,191.16,2.72,6,4.09,11.92,4.09,17.71,0,8.29-5.54,18.65-16.64,31.08-11.08,12.43-23.14,23.83-36.17,34.19-13.04,10.36-25.09,21.34-36.18,32.95-11.09,11.59-16.63,21.14-16.63,28.59,.75,19.35,15.64,88.67,129.03,194.82,113.42,106.18,168.05,136.09,173.3,138.16,5.26,2.07,9.63,3.09,13.12,3.09,7.01,0,15.96-5.89,26.85-17.7,10.89-11.82,47.5-65.28,59.17-77.1,11.67-11.8,21.4-17.71,29.18-17.71,5.44,0,10.98,1.45,16.62,4.34,5.64,2.9,176.18,109.21,179.44,112.77,8.85,9.66,2.6,39.82-4.09,56.9"/></svg>