<?xml version="1.0" encoding="UTF-8"?><svg id="Layer_1" xmlns="http://www.w3.org/2000/svg" viewBox="0 0 8.47 8.47"><path d="M1.74,0c-.15,0-.27,.12-.27,.26,0,0,0,0,0,0v7.94c0,.15,.12,.26,.27,.26H6.73c.15,0,.27-.12,.27-.26V.27C7,.12,6.88,0,6.73,0c0,0,0,0,0,0H1.74Zm.26,.53H6.47V3.04H2V.53Zm.78,.65c-.15,0-.26,.12-.26,.27,0,0,0,0,0,0v.67c0,.15,.11,.27,.26,.27,.15,0,.27-.11,.27-.26,0,0,0,0,0-.01v-.67c0-.15-.11-.27-.26-.27,0,0,0,0,0,0Zm-.78,2.39H6.47V7.94H2V3.57Zm.78,.44c-.15,0-.26,.12-.26,.27h0v1.18c0,.15,.11,.27,.26,.27,.15,0,.27-.11,.27-.26,0,0,0,0,0-.01v-1.18c0-.15-.11-.27-.26-.27,0,0,0,0,0,0Z"/></svg>