<?xml version="1.0" encoding="UTF-8"?><svg id="Layer_1" xmlns="http://www.w3.org/2000/svg" viewBox="0 0 90.65 90.65"><path d="M84.54,59.48l-38.32-14.68c-.06-.03-.13-.05-.2-.07-.03,0-2.74-.83-2.74-3.43,0-2.34,1.65-3,2.32-3.17,5.56-.15,10.03-4.71,10.03-10.31s-4.62-10.31-10.31-10.31-10.31,4.62-10.31,10.31c0,1.39,1.12,2.51,2.51,2.51s2.51-1.12,2.51-2.51c0-2.91,2.37-5.28,5.28-5.28s5.28,2.37,5.28,5.28-2.37,5.28-5.28,5.28c-.14,0-.27,.01-.41,.03-2.31,.38-6.66,2.57-6.66,8.15,0,4.98,4.02,7.52,6.25,8.22l38.37,14.7c.1,.04,.2,.07,.31,.1,.38,.09,2.45,.84,2.45,1.92,0,1.02-.83,1.85-1.85,1.85H6.87c-1.02,0-1.85-.83-1.85-1.85,0-1.37,2.32-1.9,2.33-1.9,.21-.04,.42-.11,.62-.21l29.29-14.19c1.25-.6,1.77-2.11,1.17-3.36-.6-1.25-2.11-1.77-3.36-1.17L6.04,59.49c-2.27,.56-6.04,2.56-6.04,6.75,0,3.79,3.08,6.87,6.87,6.87H83.77c3.79,0,6.88-3.08,6.88-6.87,0-4.07-3.77-6.14-6.11-6.76Z"/></svg>