<?xml version="1.0" encoding="UTF-8"?><svg id="Layer_1" xmlns="http://www.w3.org/2000/svg" viewBox="0 0 88 88"><path d="M24.98,42.22c1.23,2.96,1.66,6.09,1.56,9.27-.14,4.49-2.26,7.89-5.91,10.42-1.38,.96-1.69,2.51-.8,3.79,.85,1.23,2.44,1.53,3.76,.65,4.57-3.03,7.43-7.24,8.13-12.68,.76-5.85-.43-11.4-3.14-16.64-.81-1.57-1.65-3.14-2.33-4.76-1.2-2.9-1.63-5.97-1.56-9.08,.1-4.55,2.22-8.04,5.96-10.59,1.1-.75,1.48-1.87,1.11-3.03-.38-1.18-1.38-1.9-2.93-1.89-.23,.1-.77,.25-1.21,.54-4.46,2.94-7.28,7.04-8.04,12.32-.86,5.91,.33,11.53,3.04,16.84,.82,1.6,1.68,3.19,2.37,4.85h-.01Z"/><path d="M44.48,49.95c.26,5.06-1.7,9.01-5.83,11.91-1.43,1.01-1.78,2.55-.88,3.85,.86,1.24,2.47,1.52,3.84,.59,5.78-3.93,8.41-9.46,8.26-16.37-.12-5.12-1.54-9.84-4.09-14.25-.61-1.05-1.11-2.18-1.57-3.31-1.19-2.94-1.67-6.04-1.59-9.18,.11-4.53,2.22-8.04,5.96-10.59,1.31-.89,1.61-2.49,.77-3.73-.84-1.25-2.4-1.58-3.73-.7-4.86,3.21-7.76,7.72-8.26,13.53-.53,6.03,.83,11.71,3.89,16.96,2.04,3.5,3.03,7.28,3.23,11.31h0v-.02Z"/><path d="M62.45,50.38c.11,3.1-.64,5.98-2.62,8.39-.99,1.2-2.24,2.2-3.45,3.2-1.18,.98-1.52,2.47-.7,3.69,.83,1.22,2.41,1.59,3.66,.77,5.67-3.73,8.41-9.05,8.49-15.77-.02-5.18-1.27-10.03-3.86-14.51-1.96-3.38-3.01-7-3.34-10.89-.45-5.32,1.41-9.51,5.78-12.59,1.43-1.01,1.77-2.54,.88-3.85-.86-1.26-2.43-1.54-3.83-.6-5.36,3.61-8.16,8.7-8.26,15.13-.08,5.27,1.1,10.3,3.8,14.89,2.21,3.75,3.31,7.8,3.46,12.13h0Z"/><path d="M85.31,74.95H2.69c-1.49,0-2.69,1.21-2.69,2.69s1.21,2.69,2.69,2.69H85.31c1.49,0,2.69-1.21,2.69-2.69s-1.21-2.69-2.69-2.69h0Z"/></svg>