<?xml version="1.0" encoding="UTF-8"?><svg id="Layer_1" xmlns="http://www.w3.org/2000/svg" viewBox="0 0 82 82"><path d="M34.69,0c-1.46,.15-2.7,1.53-2.69,3v6c-7.1,0-14.22,0-20.31,0-1.46,.15-2.7,1.53-2.69,3,0,4.34,3.16,7.26,6.09,9.06,2.47,1.52,4.92,2.48,6.59,3.19l-4.69,54.47c-.16,1.66,1.33,3.29,3,3.28H64c1.67,0,3.16-1.62,3-3.28l-5.03-58.72h2.97c.69,0,.98,.08,1.25,.38,.27,.29,.81,1.2,.81,3.62v22c-.02,1.58,1.41,3.04,3,3.04s3.02-1.46,3-3.04V24c0-3.35-.78-5.99-2.44-7.75s-3.92-2.25-5.62-2.25h-3.5l-.19-2.28c-.14-1.47-1.52-2.73-3-2.72h-6.25V3C52,1.43,50.57,0,49,0,44.24,0,39.42,0,34.69,0Zm3.31,6h8v3h-8v-3ZM17.03,15h5.44l-.25,2.97c-1.38-.59-2.78-1.25-4-2-.54-.33-.79-.65-1.19-.97Zm11.44,0h27.06l4.34,51H24.12L28.47,15Zm-4.84,57H60.37l.34,4H23.28l.34-4Z"/></svg>