<?xml version="1.0" encoding="UTF-8"?><svg id="Layer_1" xmlns="http://www.w3.org/2000/svg" viewBox="0 0 60 60"><g><circle cx="15" cy="9" r="3"/><circle cx="25" cy="9" r="3"/><circle cx="35" cy="9" r="3"/><circle cx="45" cy="9" r="3"/></g><g><path d="M46.68,60H13.32c-5.15,0-9.31-4.17-9.32-9.32V9.32C4.01,4.17,8.17,0,13.32,0H46.68c5.15,0,9.31,4.17,9.32,9.32V50.68c0,5.15-4.17,9.31-9.32,9.32ZM13.32,4c-2.94,0-5.31,2.38-5.32,5.32V50.68c0,2.94,2.38,5.31,5.32,5.32H46.68c2.94,0,5.31-2.38,5.32-5.32V9.32c0-2.94-2.38-5.31-5.32-5.32H13.32Z"/><rect x="6" y="14" width="48" height="4"/><path d="M46,25H14c-1.1,0-2-.9-2-2s.9-2,2-2H46c1.1,0,2,.9,2,2s-.9,2-2,2Z"/><path d="M46,52H14c-1.1,0-2-.9-2-2V30c0-1.1,.9-2,2-2H46c1.1,0,2,.9,2,2v20c0,1.1-.9,2-2,2Zm-30-4h28v-16H16v16Z"/></g></svg>