<?xml version="1.0" encoding="UTF-8"?><svg id="Layer_1" xmlns="http://www.w3.org/2000/svg" viewBox="0 0 96 96"><defs><style>.cls-1{fill:#fff;fill-rule:evenodd;}</style></defs><path class="cls-1" d="M53.2,90.14l-5.2,5.86-5.2-5.86c-.25-.29-.71-.81-1.34-1.54-1.03-1.21-2.18-2.57-3.42-4.08-3.53-4.3-7.06-8.86-10.37-13.5-2.68-3.75-5.1-7.41-7.2-10.92-5.6-9.33-8.76-17.2-8.76-23.81C11.7,16.25,27.95,0,48,0s36.3,16.25,36.3,36.3c0,6.62-3.16,14.48-8.76,23.81-2.1,3.51-4.52,7.16-7.2,10.92-3.31,4.64-6.84,9.2-10.37,13.5-1.24,1.51-2.39,2.87-3.42,4.08-.63,.73-1.08,1.25-1.34,1.54h-.01Zm-5.2-36.45c9.61,0,17.4-7.79,17.4-17.4s-7.79-17.4-17.4-17.4-17.4,7.79-17.4,17.4,7.79,17.4,17.4,17.4Z"/></svg>