<?xml version="1.0" encoding="UTF-8"?><svg id="Layer_1" xmlns="http://www.w3.org/2000/svg" viewBox="0 0 27.93 27.93"><path d="M16.47,21.93c0,.55-.45,1-1,1s-1-.45-1-1v-1c0-.55,.45-1,1-1s1,.45,1,1v1Zm-2-6c0-.55-.45-1-1-1s-1,.45-1,1v1c0,.55,.45,1,1,1s1-.45,1-1v-1Zm2,0v1c0,.55,.45,1,1,1s1-.45,1-1v-1c0-.55-.45-1-1-1s-1,.45-1,1Zm5-1c-.55,0-1,.45-1,1v1c0,.55,.45,1,1,1s1-.45,1-1v-1c0-.55-.45-1-1-1Zm-2,5c-.55,0-1,.45-1,1v1c0,.55,.45,1,1,1s1-.45,1-1v-1c0-.55-.45-1-1-1Zm-2,5c-.55,0-1,.45-1,1v1c0,.55,.45,1,1,1s1-.45,1-1v-1c0-.55-.45-1-1-1ZM13.43,1.93c-1.64,0-2.96,1.33-2.96,2.96V26.93c0,.55-.45,1-1,1s-1-.45-1-1v-3h-1v.89c0,.55-.45,1-1,1s-1-.45-1-1v-4c0-.55,.45-1,1-1s1,.45,1,1v1.11h1V4.89C8.5,2.15,10.76-.04,13.5,0c2.69,.04,4.86,2.21,4.89,4.89v2.1c2.33,.33,4.07,2.32,4.07,4.68,0,.69-.56,1.26-1.26,1.26h-7.48c-.69,0-1.26-.56-1.26-1.26,0-2.3,1.66-4.27,3.93-4.66v-2.12c0-1.64-1.33-2.96-2.97-2.96Zm1.14,9h5.8c-.33-1.18-1.41-2-2.64-2h-.52c-1.23,0-2.31,.82-2.64,2Z"/></svg>