<?xml version="1.0" encoding="UTF-8"?><svg id="Layer_1" xmlns="http://www.w3.org/2000/svg" viewBox="0 0 28.01 28.01"><path d="M9.29,.3c-1.43,1.56-2.25,3.59-2.29,5.71V25.01c0,1.66,1.34,3,3,3s3-1.34,3-3V6.01c-.04-2.12-.86-4.15-2.29-5.71-.39-.39-1.02-.39-1.41,0,0,0,0,0,0,0Zm1.71,16.09l-2-1v-3.76l2,1v3.76Zm-1,9.62c-.55,0-1-.45-1-1v-7.38l2,1v6.38c0,.55-.45,1-1,1Zm1-15.62l-2-1v-3.38c.02-1.19,.36-2.35,1-3.35,.63,1,.98,2.16,1,3.35v4.38ZM17.3,.3c-1.43,1.56-2.25,3.59-2.29,5.71V25.01c0,1.66,1.34,3,3,3s3-1.34,3-3V6.01c-.04-2.12-.86-4.15-2.29-5.71-.39-.39-1.02-.39-1.41,0,0,0,0,0,0,0Zm1.71,16.09l-2-1v-3.76l2,1v3.76Zm-1,9.62c-.55,0-1-.45-1-1v-7.38l2,1v6.38c0,.55-.45,1-1,1Zm1-15.62l-2-1v-3.38c.02-1.19,.36-2.35,1-3.35,.63,1,.98,2.16,1,3.35v4.38ZM6.01,24.01c0,.55-.45,1-1,1h-1v2c0,.55-.45,1-1,1s-1-.45-1-1v-2H1.01C.45,25.01,0,24.56,0,24.01s.45-1,1-1h1V1.01C2.01,.45,2.45,0,3.01,0s1,.45,1,1V23.01h1c.55,0,1,.45,1,1Zm22,0c0,.55-.45,1-1,1h-1v2c0,.55-.45,1-1,1s-1-.45-1-1v-2h-1c-.55,0-1-.45-1-1s.45-1,1-1h1V1.01C24.01,.45,24.45,0,25.01,0s1,.45,1,1V23.01h1c.55,0,1,.45,1,1Z"/></svg>