<?xml version="1.0" encoding="UTF-8"?><svg id="Layer_1" xmlns="http://www.w3.org/2000/svg" viewBox="0 0 32 32"><path d="M23.9,21.49c.69,0,1.25-.56,1.25-1.25s-.56-1.25-1.25-1.25H8.3c-.69,0-1.25,.56-1.25,1.25s.56,1.25,1.25,1.25h6.55v9.26c0,.69,.56,1.25,1.25,1.25s1.25-.56,1.25-1.25v-9.26h6.55Z"/><path d="M10.71,24.16H4.36v-6.42c0-.69-.56-1.25-1.25-1.25s-1.25,.56-1.25,1.25v13.01c0,.69,.56,1.25,1.25,1.25s1.25-.56,1.25-1.25v-4.09h5.1v4.09c0,.69,.56,1.25,1.25,1.25s1.25-.56,1.25-1.25v-5.34c0-.69-.56-1.25-1.25-1.25Z"/><path d="M28.89,16.49c-.69,0-1.25,.56-1.25,1.25v6.42h-6.35c-.69,0-1.25,.56-1.25,1.25v5.34c0,.69,.56,1.25,1.25,1.25s1.25-.56,1.25-1.25v-4.09h5.1v4.09c0,.69,.56,1.25,1.25,1.25s1.25-.56,1.25-1.25v-13.01c0-.69-.56-1.25-1.25-1.25Z"/><path d="M3.39,10.55H14.85v4.6c0,.69,.56,1.25,1.25,1.25s1.25-.56,1.25-1.25v-4.6h11.53c.56,0,1.05-.37,1.2-.9,.15-.53-.06-1.11-.53-1.4L16.77,.19c-.41-.26-.93-.26-1.33,0L2.72,8.25c-.47,.3-.69,.87-.53,1.4,.16,.53,.65,.9,1.2,.9ZM16.1,2.73l8.45,5.33H7.69L16.1,2.73Z"/></svg>