<?xml version="1.0" encoding="UTF-8"?><svg id="Layer_1" xmlns="http://www.w3.org/2000/svg" viewBox="0 0 28.01 28.01"><path d="M25.5,5.01c-.99,0-1.89,.59-2.29,1.5h-1.21v-.5c0-1.66-1.34-3-3-3H9c-1.66,0-3,1.34-3,3v.5h-1.21c-.55-1.27-2.03-1.84-3.29-1.29S-.34,7.24,.21,8.51c.55,1.27,2.03,1.84,3.29,1.29,.58-.25,1.04-.71,1.29-1.29h1.21v13.5c0,1.66,1.34,3,3,3h10c1.66,0,3-1.34,3-3V8.51h1.21c.55,1.27,2.03,1.84,3.29,1.29,1.27-.55,1.84-2.03,1.29-3.29-.4-.91-1.3-1.5-2.29-1.5ZM2.5,8.01c-.28,0-.5-.22-.5-.5s.22-.5,.5-.5,.5,.22,.5,.5-.22,.5-.5,.5Zm5.5,10h12v1H8v-1Zm12,4c0,.55-.45,1-1,1H9c-.55,0-1-.45-1-1v-1h12v1Zm-12-6V6.01c0-.55,.45-1,1-1h10c.55,0,1,.45,1,1v10H8ZM25.5,8.01c-.28,0-.5-.22-.5-.5s.22-.5,.5-.5,.5,.22,.5,.5-.22,.5-.5,.5Z"/></svg>