<?xml version="1.0" encoding="UTF-8"?><svg id="Layer_1" xmlns="http://www.w3.org/2000/svg" viewBox="0 0 28 28"><defs><style>.cls-1{fill-rule:evenodd;}</style></defs><path class="cls-1" d="M28,9.85c0-1.78-1.44-3.22-3.22-3.22H3.22c-1.78,0-3.22,1.44-3.22,3.22v9.56c0,1.78,1.44,3.22,3.22,3.22H24.78c1.78,0,3.22-1.44,3.22-3.22V9.85Zm-2,0v9.56c0,.67-.55,1.22-1.22,1.22H3.22c-.67,0-1.22-.55-1.22-1.22V9.85c0-.67,.55-1.22,1.22-1.22H24.78c.67,0,1.22,.55,1.22,1.22Z"/><path class="cls-1" d="M13,20.63v6h2v-6h-2Z"/><path class="cls-1" d="M7.5,26.63h13v-2H7.5v2Z"/><path class="cls-1" d="M10.73,2l1.97,5.9,1.9-.63-1.97-5.9s-1.9,.63-1.9,.63Z"/><path class="cls-1" d="M15.37,1.37l-1.97,5.9,1.9,.63,1.97-5.9s-1.9-.63-1.9-.63Z"/></svg>