<?xml version="1.0" encoding="UTF-8"?><svg id="Layer_1" xmlns="http://www.w3.org/2000/svg" viewBox="0 0 14 14"><defs><style>.cls-1{fill:#fff;}</style></defs><path class="cls-1" d="M11.9,2.03C10.59,.72,8.85,0,7,0,3.17,0,.06,3.11,.06,6.94c0,1.22,.32,2.42,.93,3.47L0,14l3.68-.97c1.01,.55,2.15,.84,3.32,.84h0c3.82,0,7-3.11,7-6.94,0-1.85-.79-3.59-2.1-4.91h-.01ZM7,12.71c-1.04,0-2.05-.28-2.94-.8l-.21-.12-2.18,.57,.58-2.13-.14-.22c-.58-.92-.88-1.98-.88-3.07,0-3.18,2.59-5.77,5.77-5.77,1.54,0,2.99,.6,4.07,1.69s1.76,2.54,1.75,4.08c0,3.18-2.65,5.77-5.83,5.77h.01Zm3.16-4.32c-.17-.09-1.02-.51-1.18-.56-.16-.06-.27-.09-.39,.09-.12,.18-.45,.56-.55,.68-.1,.12-.2,.13-.38,.04-1.02-.51-1.69-.91-2.36-2.06-.18-.31,.18-.28,.51-.95,.06-.12,.03-.22-.02-.3s-.39-.94-.53-1.29c-.14-.34-.28-.29-.39-.3h-.33c-.11,0-.3,.04-.46,.22-.16,.18-.61,.59-.61,1.45s.62,1.68,.71,1.79c.09,.12,1.22,1.87,2.96,2.62,1.1,.48,1.53,.52,2.08,.43,.33-.05,1.02-.42,1.17-.82s.14-.75,.1-.82c-.04-.08-.16-.12-.33-.21h0Z"/></svg>