<?xml version="1.0" encoding="UTF-8"?><svg id="Layer_1" xmlns="http://www.w3.org/2000/svg" viewBox="0 0 94.93 94.93"><path d="M93.73,30.22c-12.3-12.4-28.8-19.2-46.3-19.2S13.42,17.81,1.12,30.22c-1.5,1.5-1.5,4.1,0,5.6s4.1,1.5,5.6,0c10.8-10.9,25.3-16.9,40.7-16.9s29.9,6,40.7,16.9c.8,.8,1.8,1.2,2.8,1.2s2-.4,2.8-1.2c1.6-1.6,1.6-4.1,0-5.6Z"/><path d="M13.62,42.72c-1.5,1.5-1.5,4.1,0,5.6s4.1,1.5,5.6,0c15.5-15.5,40.8-15.5,56.3,0,.8,.8,1.8,1.2,2.8,1.2s2-.4,2.8-1.2c1.5-1.5,1.5-4.1,0-5.6-18.6-18.6-48.8-18.6-67.5,0Z"/><path d="M47.42,46.61c-8,0-15.5,3.1-21.2,8.8-1.5,1.5-1.5,4.1,0,5.6,1.5,1.5,4.1,1.5,5.6,0,4.2-4.2,9.7-6.5,15.6-6.5s11.4,2.3,15.6,6.5c.8,.8,1.8,1.2,2.8,1.2s2-.4,2.8-1.2c1.5-1.5,1.5-4.1,0-5.6-5.7-5.7-13.2-8.8-21.2-8.8Z"/><path d="M47.42,65.11c-5.2,0-9.4,4.2-9.4,9.4s4.2,9.4,9.4,9.4,9.4-4.2,9.4-9.4-4.2-9.4-9.4-9.4Z"/></svg>